<svg width="230" height="177" viewBox="0 0 230 177" fill="none" xmlns="http://www.w3.org/2000/svg">
<path d="M103.399 71.7943C102.637 75.0603 107.002 76.8682 108.719 73.9934L144.607 14.0375C149.839 5.54353 158.628 0.582275 168.512 0.582275H224.484C227.672 0.582275 230.027 3.5934 229.289 6.73494L210.335 87.5197C209.585 90.7146 206.766 92.967 203.526 92.967H120.795C119.506 92.967 118.393 93.8621 118.094 95.1246L117.309 98.4558C117.092 99.3746 117.783 100.264 118.721 100.264H201.095C204.288 100.264 206.637 103.281 205.899 106.416L197.415 142.514C196.665 145.703 193.847 147.956 190.607 147.956H92.5772C88.4641 147.956 84.8841 150.795 83.8998 154.837L79.9214 171.576C79.1656 174.759 76.3532 177 73.1131 177H5.51595C2.32857 177 -0.0268104 173.989 0.711444 170.847L39.3878 6.0355C40.1377 2.84655 42.956 0.588203 46.1961 0.588203H113.805C116.992 0.588203 119.348 3.59933 118.615 6.73494L103.405 71.7943H103.399Z" fill="white"/>
</svg>
