<svg width="128" height="116" viewBox="0 0 128 116" fill="none" xmlns="http://www.w3.org/2000/svg">
<g clip-path="url(#clip0_112_218)">
<path d="M58.1519 31.6136C55.576 54.675 45.3107 70.5752 25.6303 69.094C12.7182 67.9348 1.25517 77.3886 0.0895407 90.2556C-0.179268 93.3214 0.158591 96.4101 1.08382 99.3453C2.00904 102.281 3.5035 105.005 5.48182 107.362C7.46014 109.72 9.88356 111.664 12.6136 113.085C15.3437 114.506 18.3269 115.374 21.3928 115.642C34.3049 116.801 45.7679 107.341 46.94 94.4737C50.8297 74.0849 66.5367 67.7867 89.8557 69.4095C109.111 71.129 126.125 57.032 127.851 37.9054C129.59 18.7788 115.403 1.86757 96.1539 0.14811C76.8986 -1.60999 59.8843 12.487 58.1584 31.6136H58.1519Z" fill="white"/>
</g>
<defs>
<clipPath id="clip0_112_218">
<rect width="128" height="115.738" fill="white"/>
</clipPath>
</defs>
</svg>
